<mxfile host="app.diagrams.net" modified="2023-04-24T03:41:54.441Z" agent="Mozilla/5.0 (Windows NT 10.0; Win64; x64) AppleWebKit/537.36 (KHTML, like Gecko) Chrome/112.0.0.0 Safari/537.36" etag="fUUR6QUALnkr4GIlGfKA" version="21.2.1" type="github">
  <diagram name="第 1 页" id="cdg8t6ILwEKN6NGKlXVL">
    <mxGraphModel dx="2261" dy="764" grid="1" gridSize="10" guides="1" tooltips="1" connect="1" arrows="1" fold="1" page="1" pageScale="1" pageWidth="827" pageHeight="1169" math="0" shadow="0">
      <root>
        <mxCell id="0" />
        <mxCell id="1" parent="0" />
        <mxCell id="zFLDjKRP3FbS0bV2pPbo-4" style="edgeStyle=orthogonalEdgeStyle;rounded=0;orthogonalLoop=1;jettySize=auto;html=1;" edge="1" parent="1" source="zFLDjKRP3FbS0bV2pPbo-1" target="zFLDjKRP3FbS0bV2pPbo-3">
          <mxGeometry relative="1" as="geometry" />
        </mxCell>
        <mxCell id="zFLDjKRP3FbS0bV2pPbo-1" value="&lt;div style=&quot;background-color: rgb(255, 255, 255); line-height: 19px; font-size: 19px;&quot;&gt;&lt;font style=&quot;font-size: 19px;&quot; face=&quot;Lucida Console&quot;&gt;&lt;font style=&quot;font-size: 19px;&quot;&gt;UsbDk_GetDevicesList&lt;/font&gt;(PUSB_DK_DEVICE_INFO *DevicesArray, PULONG NumberDevices)&lt;/font&gt;&lt;/div&gt;" style="rounded=0;whiteSpace=wrap;html=1;" vertex="1" parent="1">
          <mxGeometry x="-67.5" y="180" width="925" height="50" as="geometry" />
        </mxCell>
        <mxCell id="zFLDjKRP3FbS0bV2pPbo-3" value="&lt;div style=&quot;background-color: rgb(255, 255, 255); line-height: 19px; font-size: 19px;&quot;&gt;&lt;div style=&quot;line-height: 19px;&quot;&gt;&lt;font face=&quot;Lucida Console&quot;&gt;&lt;font style=&quot;&quot; color=&quot;#ff0000&quot;&gt;UsbDkDriverAccess&lt;/font&gt;.GetDevicesList(*DevicesArray, *NumberDevices)&lt;/font&gt;&lt;/div&gt;&lt;/div&gt;" style="rounded=0;whiteSpace=wrap;html=1;" vertex="1" parent="1">
          <mxGeometry x="17.5" y="320" width="755" height="50" as="geometry" />
        </mxCell>
        <mxCell id="zFLDjKRP3FbS0bV2pPbo-7" value="" style="edgeStyle=orthogonalEdgeStyle;rounded=0;orthogonalLoop=1;jettySize=auto;html=1;" edge="1" parent="1" source="zFLDjKRP3FbS0bV2pPbo-5" target="zFLDjKRP3FbS0bV2pPbo-3">
          <mxGeometry relative="1" as="geometry" />
        </mxCell>
        <mxCell id="zFLDjKRP3FbS0bV2pPbo-5" value="" style="rounded=0;whiteSpace=wrap;html=1;" vertex="1" parent="1">
          <mxGeometry x="-135" y="450" width="1060" height="410" as="geometry" />
        </mxCell>
        <mxCell id="zFLDjKRP3FbS0bV2pPbo-9" style="edgeStyle=orthogonalEdgeStyle;rounded=0;orthogonalLoop=1;jettySize=auto;html=1;" edge="1" parent="1" source="zFLDjKRP3FbS0bV2pPbo-6" target="zFLDjKRP3FbS0bV2pPbo-8">
          <mxGeometry relative="1" as="geometry" />
        </mxCell>
        <mxCell id="zFLDjKRP3FbS0bV2pPbo-16" style="edgeStyle=orthogonalEdgeStyle;rounded=0;orthogonalLoop=1;jettySize=auto;html=1;" edge="1" parent="1" source="zFLDjKRP3FbS0bV2pPbo-6" target="zFLDjKRP3FbS0bV2pPbo-15">
          <mxGeometry relative="1" as="geometry" />
        </mxCell>
        <mxCell id="zFLDjKRP3FbS0bV2pPbo-6" value="&lt;div style=&quot;background-color: rgb(255, 255, 255); line-height: 19px; font-size: 18px;&quot;&gt;&lt;div style=&quot;line-height: 19px;&quot;&gt;&lt;div style=&quot;&quot;&gt;&lt;font style=&quot;font-size: 18px;&quot; face=&quot;Lucida Console&quot;&gt;//获得设备的数量，方便后面判断是否设备数为0，为0直接返回&lt;/font&gt;&lt;/div&gt;&lt;div style=&quot;&quot;&gt;&lt;font style=&quot;font-size: 18px;&quot; face=&quot;Lucida Console&quot;&gt;Ioctl(IOCTL_USBDK_COUNT_DEVICES, false, nullptr, 0, &amp;amp;DeviceNumber, sizeof(DeviceNumber));&lt;/font&gt;&lt;/div&gt;&lt;/div&gt;&lt;/div&gt;" style="rounded=0;whiteSpace=wrap;html=1;align=left;" vertex="1" parent="1">
          <mxGeometry x="-100" y="480" width="985" height="70" as="geometry" />
        </mxCell>
        <mxCell id="zFLDjKRP3FbS0bV2pPbo-12" style="edgeStyle=orthogonalEdgeStyle;rounded=0;orthogonalLoop=1;jettySize=auto;html=1;" edge="1" parent="1" source="zFLDjKRP3FbS0bV2pPbo-8" target="zFLDjKRP3FbS0bV2pPbo-10">
          <mxGeometry relative="1" as="geometry" />
        </mxCell>
        <mxCell id="zFLDjKRP3FbS0bV2pPbo-14" style="edgeStyle=orthogonalEdgeStyle;rounded=0;orthogonalLoop=1;jettySize=auto;html=1;" edge="1" parent="1" source="zFLDjKRP3FbS0bV2pPbo-8" target="zFLDjKRP3FbS0bV2pPbo-13">
          <mxGeometry relative="1" as="geometry" />
        </mxCell>
        <mxCell id="zFLDjKRP3FbS0bV2pPbo-8" value="&lt;div style=&quot;background-color: rgb(255, 255, 255); line-height: 19px; font-size: 18px;&quot;&gt;&lt;div style=&quot;line-height: 19px;&quot;&gt;&lt;div style=&quot;&quot;&gt;&lt;font style=&quot;font-size: 18px;&quot; face=&quot;Lucida Console&quot;&gt;//枚举设备&lt;/font&gt;&lt;/div&gt;&lt;div style=&quot;&quot;&gt;&lt;div style=&quot;line-height: 19px;&quot;&gt;&lt;div style=&quot;&quot;&gt;&lt;font style=&quot;font-size: 18px;&quot; face=&quot;Lucida Console&quot;&gt;Ioctl(IOCTL_USBDK_ENUM_DEVICES, true, nullptr, 0,&lt;/font&gt;&lt;/div&gt;&lt;div style=&quot;&quot;&gt;&lt;font style=&quot;font-size: 18px;&quot; face=&quot;Lucida Console&quot;&gt;&amp;nbsp; &amp;nbsp; &amp;nbsp; Result.get(), DeviceNumber * sizeof(USB_DK_DEVICE_INFO),&amp;amp;bytesReturned)&lt;/font&gt;&lt;/div&gt;&lt;/div&gt;&lt;/div&gt;&lt;/div&gt;&lt;/div&gt;" style="rounded=0;whiteSpace=wrap;html=1;align=left;" vertex="1" parent="1">
          <mxGeometry x="-100" y="600" width="985" height="90" as="geometry" />
        </mxCell>
        <mxCell id="zFLDjKRP3FbS0bV2pPbo-10" value="&lt;div style=&quot;background-color: rgb(255, 255, 255); line-height: 19px; font-size: 18px;&quot;&gt;&lt;div style=&quot;line-height: 19px;&quot;&gt;&lt;div style=&quot;&quot;&gt;&lt;font style=&quot;font-size: 18px;&quot; face=&quot;Lucida Console&quot;&gt;//返回的设备数组&lt;/font&gt;&lt;/div&gt;&lt;div style=&quot;&quot;&gt;&lt;div style=&quot;line-height: 19px;&quot;&gt;&lt;div style=&quot;font-size: 20px;&quot;&gt;&lt;div style=&quot;line-height: 19px;&quot;&gt;&lt;font face=&quot;Lucida Console&quot;&gt;DevicesArray = Result.release();&lt;/font&gt;&lt;/div&gt;&lt;/div&gt;&lt;/div&gt;&lt;/div&gt;&lt;/div&gt;&lt;/div&gt;" style="rounded=0;whiteSpace=wrap;html=1;align=left;" vertex="1" parent="1">
          <mxGeometry x="-100" y="730" width="985" height="70" as="geometry" />
        </mxCell>
        <mxCell id="zFLDjKRP3FbS0bV2pPbo-21" style="edgeStyle=orthogonalEdgeStyle;rounded=0;orthogonalLoop=1;jettySize=auto;html=1;" edge="1" parent="1" source="zFLDjKRP3FbS0bV2pPbo-13">
          <mxGeometry relative="1" as="geometry">
            <mxPoint x="1820" y="930" as="targetPoint" />
          </mxGeometry>
        </mxCell>
        <mxCell id="zFLDjKRP3FbS0bV2pPbo-13" value="&lt;div style=&quot;background-color: rgb(255, 255, 255); font-size: 19px; line-height: 19px;&quot;&gt;&lt;div style=&quot;&quot;&gt;&lt;font face=&quot;Lucida Console&quot;&gt;case &lt;span style=&quot;color: rgb(0, 0, 255);&quot;&gt;IOCTL_USBDK_ENUM_DEVICES&lt;/span&gt;:&lt;/font&gt;&lt;/div&gt;&lt;div style=&quot;&quot;&gt;&lt;font face=&quot;Lucida Console&quot;&gt;{&lt;/font&gt;&lt;/div&gt;&lt;div style=&quot;&quot;&gt;&lt;font face=&quot;Lucida Console&quot;&gt;&amp;nbsp; &amp;nbsp; &amp;nbsp; &lt;span style=&quot;color: #795e26;&quot;&gt;EnumerateDevices&lt;/span&gt;(&lt;span style=&quot;color: #001080;&quot;&gt;WdfRequest&lt;/span&gt;, &lt;span style=&quot;color: #001080;&quot;&gt;Queue&lt;/span&gt;);&lt;/font&gt;&lt;/div&gt;&lt;div style=&quot;&quot;&gt;&lt;font face=&quot;Lucida Console&quot;&gt;&amp;nbsp; &amp;nbsp; &amp;nbsp; &lt;span style=&quot;color: #af00db;&quot;&gt;break&lt;/span&gt;;&lt;/font&gt;&lt;/div&gt;&lt;div style=&quot;&quot;&gt;&lt;font face=&quot;Lucida Console&quot;&gt;}&lt;/font&gt;&lt;/div&gt;&lt;/div&gt;" style="rounded=0;whiteSpace=wrap;html=1;align=left;" vertex="1" parent="1">
          <mxGeometry x="1050" y="660" width="510" height="125" as="geometry" />
        </mxCell>
        <mxCell id="zFLDjKRP3FbS0bV2pPbo-15" value="&lt;div style=&quot;background-color: rgb(255, 255, 255); font-size: 19px; line-height: 19px;&quot;&gt;&lt;div style=&quot;line-height: 19px;&quot;&gt;&lt;div style=&quot;&quot;&gt;&lt;font face=&quot;Lucida Console&quot;&gt;case &lt;span style=&quot;color: rgb(0, 0, 255);&quot;&gt;IOCTL_USBDK_COUNT_DEVICES&lt;/span&gt;:&lt;/font&gt;&lt;/div&gt;&lt;div style=&quot;&quot;&gt;&lt;font face=&quot;Lucida Console&quot;&gt;{&lt;/font&gt;&lt;/div&gt;&lt;div style=&quot;&quot;&gt;&lt;font face=&quot;Lucida Console&quot;&gt;&amp;nbsp; &amp;nbsp; &amp;nbsp;&lt;span style=&quot;color: #795e26;&quot;&gt;CountDevices&lt;/span&gt;(&lt;span style=&quot;color: #001080;&quot;&gt;WdfRequest&lt;/span&gt;, &lt;span style=&quot;color: #001080;&quot;&gt;Queue&lt;/span&gt;);&lt;/font&gt;&lt;/div&gt;&lt;div style=&quot;&quot;&gt;&lt;font face=&quot;Lucida Console&quot;&gt;&amp;nbsp; &amp;nbsp; &amp;nbsp;&lt;span style=&quot;color: #af00db;&quot;&gt;break&lt;/span&gt;;&lt;/font&gt;&lt;/div&gt;&lt;div style=&quot;&quot;&gt;&lt;font face=&quot;Lucida Console&quot;&gt;}&lt;/font&gt;&lt;/div&gt;&lt;/div&gt;&lt;/div&gt;" style="rounded=0;whiteSpace=wrap;html=1;align=left;" vertex="1" parent="1">
          <mxGeometry x="1050" y="360" width="480" height="120" as="geometry" />
        </mxCell>
        <mxCell id="zFLDjKRP3FbS0bV2pPbo-23" style="edgeStyle=orthogonalEdgeStyle;rounded=0;orthogonalLoop=1;jettySize=auto;html=1;" edge="1" parent="1" source="zFLDjKRP3FbS0bV2pPbo-17" target="zFLDjKRP3FbS0bV2pPbo-22">
          <mxGeometry relative="1" as="geometry" />
        </mxCell>
        <mxCell id="zFLDjKRP3FbS0bV2pPbo-17" value="&lt;div style=&quot;background-color: rgb(255, 255, 255); font-size: 19px; line-height: 19px;&quot;&gt;&lt;div style=&quot;font-size: 18px;&quot;&gt;&lt;div style=&quot;line-height: 19px;&quot;&gt;&lt;div style=&quot;&quot;&gt;&lt;font style=&quot;font-size: 18px;&quot; face=&quot;Lucida Console&quot;&gt;auto &lt;span style=&quot;color: rgb(0, 16, 128);&quot;&gt;devExt&lt;/span&gt; = &lt;span style=&quot;color: rgb(121, 94, 38);&quot;&gt;UsbDkControlGetContext&lt;/span&gt;(&lt;span style=&quot;color: rgb(121, 94, 38);&quot;&gt;WdfIoQueueGetDevice&lt;/span&gt;(&lt;span style=&quot;color: rgb(0, 16, 128);&quot;&gt;Queue&lt;/span&gt;));&lt;/font&gt;&lt;/div&gt;&lt;div style=&quot;&quot;&gt;&lt;font style=&quot;font-size: 18px;&quot; face=&quot;Lucida Console&quot;&gt;&lt;span style=&quot;color: rgb(0, 0, 255);&quot;&gt;auto&lt;/span&gt; &lt;span style=&quot;color: rgb(0, 16, 128);&quot;&gt;res&lt;/span&gt; = &lt;span style=&quot;color: rgb(0, 16, 128);&quot;&gt;devExt&lt;/span&gt;-&amp;gt;&lt;span style=&quot;color: rgb(0, 16, 128);&quot;&gt;UsbDkControl&lt;/span&gt;-&amp;gt;&lt;span style=&quot;color: rgb(121, 94, 38);&quot;&gt;EnumerateDevices&lt;/span&gt;(&lt;span style=&quot;color: rgb(0, 16, 128);&quot;&gt;existingDevices&lt;/span&gt;, &lt;span style=&quot;color: rgb(0, 16, 128);&quot;&gt;numberAllocatedDevices&lt;/span&gt;, &lt;span style=&quot;color: rgb(0, 16, 128);&quot;&gt;numberExistingDevices&lt;/span&gt;);&lt;/font&gt;&lt;/div&gt;&lt;/div&gt;&lt;/div&gt;&lt;/div&gt;" style="rounded=0;whiteSpace=wrap;html=1;align=left;" vertex="1" parent="1">
          <mxGeometry x="980" y="930" width="1280" height="100" as="geometry" />
        </mxCell>
        <mxCell id="zFLDjKRP3FbS0bV2pPbo-22" value="&lt;div style=&quot;background-color: rgb(255, 255, 255); font-size: 19px; line-height: 19px;&quot;&gt;&lt;div style=&quot;&quot;&gt;&lt;br&gt;&lt;/div&gt;&lt;/div&gt;" style="rounded=0;whiteSpace=wrap;html=1;align=left;" vertex="1" parent="1">
          <mxGeometry x="1365" y="1130" width="510" height="125" as="geometry" />
        </mxCell>
      </root>
    </mxGraphModel>
  </diagram>
</mxfile>
